<svg width="83" height="18" viewBox="0 0 83 18" fill="none" xmlns="http://www.w3.org/2000/svg">
<path d="M0 1H4.57143L12.5477 17H7.97623L0 1Z" fill="white"/>
<path d="M24.8837 7V6.608L29.1317 2.176H25.1397V1.512H30.4597V1.888L26.1877 6.328H30.5157V7H24.8837ZM31.5215 7V1.512H32.3055V3.848H36.4495V1.512H37.2335V7H36.4495V4.536H32.3055V7H31.5215ZM38.6547 7V1.512H39.8387L41.5827 5.096C41.62 5.17067 41.6653 5.26933 41.7187 5.392C41.772 5.51467 41.8253 5.64267 41.8787 5.776C41.9373 5.904 41.988 6.01867 42.0307 6.12H42.0867C42.124 6.02933 42.1667 5.92267 42.2147 5.8C42.268 5.67733 42.3213 5.55467 42.3747 5.432C42.4333 5.30933 42.484 5.20267 42.5267 5.112L44.2627 1.512H45.4387V7H44.6547V3.44C44.6547 3.33867 44.6547 3.224 44.6547 3.096C44.66 2.968 44.6627 2.84 44.6627 2.712C44.668 2.584 44.6707 2.47467 44.6707 2.384H44.6147C44.5827 2.45867 44.5453 2.54667 44.5027 2.648C44.46 2.744 44.4173 2.84533 44.3747 2.952C44.332 3.05333 44.2893 3.144 44.2467 3.224L42.4227 7H41.6467L39.8227 3.224C39.7747 3.12267 39.7267 3.02133 39.6787 2.92C39.6307 2.81333 39.588 2.71467 39.5507 2.624C39.5133 2.528 39.4813 2.448 39.4547 2.384H39.3987C39.3987 2.46933 39.3987 2.576 39.3987 2.704C39.404 2.82667 39.4067 2.952 39.4067 3.08C39.412 3.208 39.4147 3.328 39.4147 3.44V7H38.6547ZM50.0579 7.096C49.3539 7.096 48.7433 6.98933 48.2259 6.776C47.7139 6.55733 47.3193 6.23733 47.0419 5.816C46.7699 5.38933 46.6339 4.86933 46.6339 4.256C46.6339 3.632 46.7699 3.112 47.0419 2.696C47.3193 2.27467 47.7139 1.95733 48.2259 1.744C48.7433 1.52533 49.3539 1.416 50.0579 1.416C50.7673 1.416 51.3779 1.52533 51.8899 1.744C52.4019 1.95733 52.7939 2.27467 53.0659 2.696C53.3433 3.112 53.4819 3.632 53.4819 4.256C53.4819 4.86933 53.3433 5.38933 53.0659 5.816C52.7939 6.23733 52.4019 6.55733 51.8899 6.776C51.3779 6.98933 50.7673 7.096 50.0579 7.096ZM50.0659 6.424C50.4339 6.424 50.7753 6.384 51.0899 6.304C51.4099 6.224 51.6873 6.10133 51.9219 5.936C52.1619 5.77067 52.3486 5.55467 52.4819 5.288C52.6153 5.02133 52.6819 4.704 52.6819 4.336V4.16C52.6819 3.79733 52.6153 3.48533 52.4819 3.224C52.3486 2.95733 52.1619 2.74133 51.9219 2.576C51.6873 2.40533 51.4099 2.28 51.0899 2.2C50.7753 2.12 50.4339 2.08 50.0659 2.08C49.6926 2.08 49.3459 2.12 49.0259 2.2C48.7059 2.28 48.4259 2.40533 48.1859 2.576C47.9513 2.74133 47.7673 2.95733 47.6339 3.224C47.5006 3.48533 47.4339 3.79733 47.4339 4.16V4.336C47.4339 4.704 47.5006 5.02133 47.6339 5.288C47.7673 5.55467 47.9539 5.77067 48.1939 5.936C48.4339 6.10133 48.7113 6.224 49.0259 6.304C49.3459 6.384 49.6926 6.424 50.0659 6.424ZM56.3152 7V2.2H53.8432V1.512H59.5712V2.2H57.0992V7H56.3152ZM60.3509 7V1.512H61.1269L64.6389 5.144C64.6976 5.19733 64.7643 5.26667 64.8389 5.352C64.9136 5.432 64.9883 5.512 65.0629 5.592C65.1429 5.672 65.2096 5.744 65.2629 5.808H65.3189C65.3136 5.712 65.3083 5.592 65.3029 5.448C65.3029 5.29867 65.3029 5.168 65.3029 5.056V1.512H66.0709V7H65.3509L61.8069 3.328C61.6949 3.21067 61.5776 3.08533 61.4549 2.952C61.3323 2.81333 61.2336 2.70667 61.1589 2.632H61.1109C61.1109 2.72267 61.1109 2.85067 61.1109 3.016C61.1163 3.18133 61.1189 3.34133 61.1189 3.496V7H60.3509ZM67.4919 7V1.512H68.2759V7H67.4919ZM69.7109 7V1.512H70.4949V6.312H73.9109V7H69.7109ZM77.536 7.096C76.832 7.096 76.2214 6.98933 75.704 6.776C75.192 6.55733 74.7974 6.23733 74.52 5.816C74.248 5.38933 74.112 4.86933 74.112 4.256C74.112 3.632 74.248 3.112 74.52 2.696C74.7974 2.27467 75.192 1.95733 75.704 1.744C76.2214 1.52533 76.832 1.416 77.536 1.416C78.2454 1.416 78.856 1.52533 79.368 1.744C79.88 1.95733 80.272 2.27467 80.544 2.696C80.8214 3.112 80.96 3.632 80.96 4.256C80.96 4.86933 80.8214 5.38933 80.544 5.816C80.272 6.23733 79.88 6.55733 79.368 6.776C78.856 6.98933 78.2454 7.096 77.536 7.096ZM77.544 6.424C77.912 6.424 78.2534 6.384 78.568 6.304C78.888 6.224 79.1654 6.10133 79.4 5.936C79.64 5.77067 79.8267 5.55467 79.96 5.288C80.0934 5.02133 80.16 4.704 80.16 4.336V4.16C80.16 3.79733 80.0934 3.48533 79.96 3.224C79.8267 2.95733 79.64 2.74133 79.4 2.576C79.1654 2.40533 78.888 2.28 78.568 2.2C78.2534 2.12 77.912 2.08 77.544 2.08C77.1707 2.08 76.824 2.12 76.504 2.2C76.184 2.28 75.904 2.40533 75.664 2.576C75.4294 2.74133 75.2454 2.95733 75.112 3.224C74.9787 3.48533 74.912 3.79733 74.912 4.16V4.336C74.912 4.704 74.9787 5.02133 75.112 5.288C75.2454 5.55467 75.432 5.77067 75.672 5.936C75.912 6.10133 76.1894 6.224 76.504 6.304C76.824 6.384 77.1707 6.424 77.544 6.424ZM24.7157 16L27.4277 10.504H28.9317L31.6437 16H30.1877L29.6997 14.984H26.5717L26.0837 16H24.7157ZM27.0597 13.944H29.2117L28.6117 12.664C28.5903 12.6107 28.5557 12.5307 28.5077 12.424C28.465 12.3173 28.4197 12.208 28.3717 12.096C28.3237 11.9787 28.281 11.8747 28.2437 11.784C28.2063 11.6933 28.1823 11.64 28.1717 11.624H28.1077C28.065 11.7253 28.0143 11.8453 27.9557 11.984C27.897 12.1173 27.841 12.248 27.7877 12.376C27.7343 12.4987 27.6917 12.5973 27.6597 12.672L27.0597 13.944ZM32.2293 16V10.504H33.4693L36.3973 13.304C36.4613 13.3573 36.536 13.4293 36.6213 13.52C36.712 13.6107 36.8026 13.7067 36.8933 13.808C36.9893 13.904 37.072 13.9893 37.1413 14.064H37.2053C37.2053 13.9573 37.2 13.8267 37.1893 13.672C37.184 13.512 37.1813 13.3787 37.1813 13.272V10.504H38.4613V16H37.2453L34.3253 13.192C34.192 13.064 34.0506 12.9227 33.9013 12.768C33.752 12.608 33.6346 12.4827 33.5493 12.392H33.4853C33.4906 12.4613 33.496 12.5787 33.5013 12.744C33.5066 12.904 33.5093 13.088 33.5093 13.296V16H32.2293ZM39.6124 16V10.504H40.9484V16H39.6124ZM42.1049 16V10.504H44.1849L45.3289 13.2C45.3663 13.2907 45.4143 13.4107 45.4729 13.56C45.5316 13.7093 45.5903 13.8667 45.6489 14.032C45.7129 14.1973 45.7689 14.344 45.8169 14.472H45.8729C45.9156 14.3547 45.9663 14.2187 46.0249 14.064C46.0836 13.9093 46.1423 13.7547 46.2009 13.6C46.2596 13.4453 46.3103 13.3173 46.3529 13.216L47.5049 10.504H49.5289V16H48.1929V12.824C48.1929 12.7173 48.1929 12.6027 48.1929 12.48C48.1983 12.352 48.2036 12.2293 48.2089 12.112C48.2143 11.9947 48.2196 11.8933 48.2249 11.808H48.1609C48.1343 11.8933 48.0996 11.9973 48.0569 12.12C48.0143 12.2427 47.9689 12.3653 47.9209 12.488C47.8783 12.6053 47.8383 12.712 47.8009 12.808L46.4329 16H45.1609L43.7849 12.808C43.7369 12.6907 43.6889 12.5707 43.6409 12.448C43.5929 12.32 43.5503 12.2 43.5129 12.088C43.4809 11.976 43.4516 11.8827 43.4249 11.808H43.3609C43.3663 11.8773 43.3689 11.9707 43.3689 12.088C43.3743 12.2 43.3769 12.32 43.3769 12.448C43.3823 12.5707 43.3849 12.696 43.3849 12.824V16H42.1049ZM50.1232 16L52.8352 10.504H54.3392L57.0512 16H55.5952L55.1072 14.984H51.9792L51.4912 16H50.1232ZM52.4672 13.944H54.6192L54.0192 12.664C53.9978 12.6107 53.9632 12.5307 53.9152 12.424C53.8725 12.3173 53.8272 12.208 53.7792 12.096C53.7312 11.9787 53.6885 11.8747 53.6512 11.784C53.6138 11.6933 53.5898 11.64 53.5792 11.624H53.5152C53.4725 11.7253 53.4218 11.8453 53.3632 11.984C53.3045 12.1173 53.2485 12.248 53.1952 12.376C53.1418 12.4987 53.0992 12.5973 53.0672 12.672L52.4672 13.944ZM58.4305 16V11.64H56.0305V10.504H62.1585V11.64H59.7665V16H58.4305ZM65.8626 16.096C65.1426 16.096 64.5159 15.9867 63.9826 15.768C63.4546 15.544 63.0493 15.2213 62.7666 14.8C62.4839 14.3733 62.3426 13.856 62.3426 13.248C62.3426 12.64 62.4839 12.1253 62.7666 11.704C63.0493 11.2827 63.4546 10.9627 63.9826 10.744C64.5159 10.52 65.1426 10.408 65.8626 10.408C66.5933 10.408 67.2226 10.52 67.7506 10.744C68.2786 10.9627 68.6839 11.2827 68.9666 11.704C69.2546 12.1253 69.3986 12.64 69.3986 13.248C69.3986 13.856 69.2546 14.3733 68.9666 14.8C68.6839 15.2213 68.2786 15.544 67.7506 15.768C67.2226 15.9867 66.5933 16.096 65.8626 16.096ZM65.8706 15.024C66.1853 15.024 66.4733 14.9893 66.7346 14.92C66.9959 14.8453 67.2226 14.7387 67.4146 14.6C67.6066 14.456 67.7559 14.2773 67.8626 14.064C67.9693 13.8507 68.0226 13.608 68.0226 13.336V13.152C68.0226 12.88 67.9693 12.64 67.8626 12.432C67.7559 12.2187 67.6066 12.0427 67.4146 11.904C67.2226 11.76 66.9959 11.6533 66.7346 11.584C66.4733 11.5147 66.1853 11.48 65.8706 11.48C65.5559 11.48 65.2653 11.5147 64.9986 11.584C64.7373 11.6533 64.5106 11.76 64.3186 11.904C64.1266 12.0427 63.9773 12.2187 63.8706 12.432C63.7693 12.64 63.7186 12.88 63.7186 13.152V13.336C63.7186 13.608 63.7693 13.8507 63.8706 14.064C63.9773 14.2773 64.1266 14.456 64.3186 14.6C64.5106 14.7387 64.7373 14.8453 64.9986 14.92C65.2653 14.9893 65.5559 15.024 65.8706 15.024Z" fill="white"/>
</svg>
