<svg width="958" height="110" viewBox="0 0 958 110" fill="none" xmlns="http://www.w3.org/2000/svg">
<path d="M22.1198 82.84H39.5226L55.4862 24.7614L71.6896 82.76L71.7163 82.84H89.2256L111.186 0.106646L111.212 3.05176e-05H94.0227L80.0579 59.1181L63.961 0.0799918V3.05176e-05H47.6243L31.4208 59.1181L17.5626 0.0799918V3.05176e-05H0L22.1198 82.76V82.84Z" fill="white"/>
<path d="M138.236 84.2526C146.471 84.2526 161.049 81.6405 165.952 64.1023V63.9957H149.616V64.049C147.937 68.8467 144.259 71.1922 138.343 71.1922C134.638 71.1922 131.627 70.0461 129.415 67.7806C127.043 65.3551 125.63 61.7302 125.231 56.9858H165.952V53.9473C165.952 45.0182 163.421 37.4219 158.65 31.9312C153.64 26.174 146.364 23.1355 137.65 23.1355C129.841 23.1355 122.779 25.6143 117.715 30.1454C111.772 35.4762 108.627 43.5789 108.627 53.5741C108.627 62.7164 111.452 70.4459 116.782 75.9366C122.086 81.374 129.495 84.2526 138.236 84.2526ZM125.604 46.9906C126.91 39.3676 130.96 35.4762 137.65 35.4762C144.339 35.4762 148.283 39.341 149.003 46.9906H125.604Z" fill="white"/>
<path d="M278.338 49.4427V82.8399H294.355V48.1634C294.355 39.3943 292.622 33.1573 289.051 29.0526C285.587 25.0812 280.417 23.1621 273.248 23.1621C266.079 23.1621 260.962 25.7209 257.284 30.9983V0H241.267V82.8399H257.284V51.0953C257.284 41.953 261.282 36.8888 268.53 36.8888C275.779 36.8888 278.364 40.5137 278.364 49.4427H278.338Z" fill="white"/>
<path d="M332.97 84.2526C341.205 84.2526 355.783 81.6405 360.686 64.1023V63.9957H344.35V64.049C342.671 68.8467 338.993 71.1922 333.077 71.1922C329.372 71.1922 326.361 70.0461 324.149 67.7806C321.777 65.3551 320.364 61.7302 319.965 56.9858H360.686V53.9473C360.686 45.0182 358.155 37.4219 353.384 31.9312C348.374 26.174 341.098 23.1355 332.384 23.1355C324.575 23.1355 317.513 25.6143 312.449 30.1454C306.506 35.4762 303.361 43.5789 303.361 53.5741C303.361 62.7164 306.186 70.4459 311.516 75.9366C316.82 81.374 324.229 84.2526 332.97 84.2526ZM320.311 46.9906C321.617 39.3676 325.668 35.4762 332.357 35.4762C339.046 35.4762 342.99 39.341 343.71 46.9906H320.311Z" fill="white"/>
<path d="M221.572 83.4264C224.291 83.4264 227.702 82.92 230.314 82.1204H230.367V68.8468H230.26C228.315 69.3266 226.796 69.5665 224.291 69.5665C220.933 69.5665 218.854 68.5003 218.854 63.1962V37.7685H230.367V24.415H218.854V8.2095H202.784V24.4417H195.375V37.7952H202.784V65.8083C202.784 77.6692 208.94 83.4264 221.572 83.4264Z" fill="white"/>
<path d="M470.501 0H452.991V83.2664H470.501V0Z" fill="white"/>
<path d="M405.34 0H387.831V83.2664H405.34V0Z" fill="white"/>
<path d="M438.307 37.4219L410.51 1.19943L419.598 45.3114L447.874 83.1864L438.36 37.6618L438.307 37.4219Z" fill="white"/>
<path d="M510.157 23.8018C502.801 23.8018 496.485 25.481 491.848 28.6528C486.758 32.1444 483.959 37.3419 483.746 43.7388V43.8454H499.737V43.7654C500.376 38.6479 503.894 35.9292 509.917 35.9292C516.313 35.9292 519.138 38.8612 519.138 45.3913V47.3104L505.04 49.6559C498.084 50.7487 493.127 52.348 489.476 54.6935C484.652 57.7853 482.307 62.0233 482.307 67.6739C482.307 78.7619 489.343 84.8922 502.108 84.8922C509.677 84.8922 515.993 81.7737 519.964 76.1231V83.4796H535.155V49.1495C535.155 40.0606 533.209 33.6903 529.212 29.6656C525.214 25.6409 519.138 23.7751 510.13 23.7751L510.157 23.8018ZM519.165 57.6521V60.8505C519.165 68.6068 512.795 72.6848 506.506 72.6848C501.016 72.6848 498.324 70.6591 498.324 66.5278C498.324 61.9167 502.082 60.4241 508.984 59.3046L519.138 57.6787L519.165 57.6521Z" fill="white"/>
<path d="M568.787 63.7291L556.475 25.1611L556.448 25.1078H539.499L560.659 83.4529L560.686 83.5062H576.516L597.543 25.2411L597.596 25.1078H581.233L568.787 63.7291Z" fill="white"/>
<path d="M620.436 25.1078H604.419V83.5062H620.436V25.1078Z" fill="white"/>
<path d="M620.649 1.38605H604.286V15.859H620.649V1.38605Z" fill="white"/>
<path d="M672.99 31.1048C668.539 26.1472 663.316 23.8284 656.546 23.8284C640.503 23.8284 630.136 35.636 630.136 53.9205C630.136 72.205 640.503 84.0126 656.546 84.0126C662.996 84.0126 667.926 81.7737 672.03 76.976V82.3867C672.03 87.5842 671.204 91.0758 669.418 93.4214C667.606 95.7935 664.701 96.9397 660.571 96.9397C653.295 96.9397 649.857 94.3276 649.084 88.1706V88.0906H632.241V88.1972C632.721 101.657 643.568 110 660.544 110C669.632 110 676.561 107.575 681.171 102.777C685.729 98.0325 688.02 90.9426 688.02 81.6937V25.1611H672.963V31.1582L672.99 31.1048ZM672.537 53.8938C672.537 64.4221 667.713 70.4458 659.291 70.4458C650.87 70.4458 646.153 64.4221 646.153 53.8938C646.153 43.3656 650.95 37.2086 659.291 37.2086C667.633 37.2086 672.537 43.2856 672.537 53.8938Z" fill="white"/>
<path d="M725.865 23.8018C718.509 23.8018 712.193 25.481 707.556 28.6528C702.466 32.1444 699.667 37.3419 699.454 43.7388V43.8454H715.445V43.7654C716.084 38.6479 719.602 35.9292 725.625 35.9292C732.021 35.9292 734.846 38.8612 734.846 45.3913V47.3104L720.748 49.6559C713.792 50.7487 708.835 52.348 705.184 54.6935C700.36 57.7853 698.015 62.0233 698.015 67.6739C698.015 78.7619 705.051 84.8922 717.816 84.8922C725.385 84.8922 731.701 81.7737 735.672 76.1231V83.4796H750.863V49.1495C750.863 40.0606 748.917 33.6903 744.92 29.6656C740.922 25.6409 734.846 23.7751 725.838 23.7751L725.865 23.8018ZM734.846 57.6521V60.8505C734.846 68.6068 728.477 72.6848 722.187 72.6848C716.697 72.6848 714.005 70.6591 714.005 66.5278C714.005 61.9167 717.763 60.4241 724.666 59.3046L734.819 57.6787L734.846 57.6521Z" fill="white"/>
<path d="M781.378 8.82233H765.254V25.1078H757.819V38.5146H765.254V66.6344C765.254 78.5219 771.437 84.3325 784.123 84.3325C786.841 84.3325 790.279 83.826 792.891 83.0264H792.944V69.7262H792.838C790.892 70.206 789.373 70.4725 786.841 70.4725C783.483 70.4725 781.378 69.4063 781.378 64.0756V38.5413H792.944V25.1344H781.378V8.84898V8.82233Z" fill="white"/>
<path d="M827.936 23.8019C819.275 23.8019 811.919 26.6805 806.696 32.0912C801.445 37.5286 798.674 45.1782 798.674 54.2405C798.674 72.8715 810.16 84.919 827.936 84.919C845.712 84.919 857.198 72.8715 857.198 54.2405C857.198 35.6095 845.712 23.8019 827.936 23.8019ZM837.583 66.9277C835.318 69.8596 831.987 71.4055 827.936 71.4055C819.594 71.4055 814.797 65.1685 814.797 54.2671C814.797 43.3657 819.594 37.2354 827.936 37.2354C836.278 37.2354 841.075 43.4457 841.075 54.2671C841.075 59.5979 839.875 63.9958 837.583 66.9543V66.9277Z" fill="white"/>
<path d="M895.521 24.3882C889.578 24.3882 884.755 27.48 881.556 33.3172V25.0812H866.499V83.4796H882.516V54.8001C882.516 49.6293 883.555 45.6845 885.634 43.0725C887.606 40.567 890.564 39.2876 894.349 39.2876C896.374 39.2876 897.653 39.3942 900.238 39.7674H900.345V24.8413H900.265C898.693 24.3882 896.427 24.3349 895.521 24.3349V24.3882Z" fill="white"/>
<path d="M935.577 48.1368L930.62 47.0706C924.89 45.8445 922.545 44.0854 922.545 41.0202C922.545 37.3953 925.45 35.5562 931.18 35.5562C937.549 35.5562 940.667 38.035 941.014 43.3924V43.4724H956.897V43.3657C956.471 36.9422 954.072 32.0112 949.755 28.7328C945.438 25.4544 939.201 23.8019 931.18 23.8019C915.349 23.8019 906.661 30.3054 906.661 42.0864C906.661 51.4152 912.817 56.4261 928.568 59.9977L933.418 61.1705C939.308 62.4232 941.733 64.209 941.733 67.3275C941.733 71.1123 938.508 73.0314 932.139 73.0314C925.13 73.0314 921.585 70.4726 920.653 64.7154V64.6354H904.769V64.7421C906.075 77.9357 915.323 84.8923 931.553 84.8923C939.734 84.8923 946.157 83.2931 950.661 80.1746C955.272 76.9495 957.617 72.2851 957.617 66.2613C957.617 56.7992 951.434 51.7084 935.577 48.1101V48.1368Z" fill="white"/>
</svg>
